<svg viewBox="0 0 1000 600" xmlns="http://www.w3.org/2000/svg">
  <!-- Background with gradient -->
  <defs>
    <linearGradient id="bg-gradient" x1="0%" y1="0%" x2="100%" y2="100%">
      <stop offset="0%" stop-color="#1a1a2e" />
      <stop offset="100%" stop-color="#16213e" />
    </linearGradient>
    <filter id="glow" x="-20%" y="-20%" width="140%" height="140%">
      <feGaussianBlur stdDeviation="5" result="blur" />
      <feComposite in="SourceGraphic" in2="blur" operator="over" />
    </filter>
    <filter id="shadow" x="-10%" y="-10%" width="120%" height="120%">
      <feDropShadow dx="0" dy="4" stdDeviation="4" flood-color="#000" flood-opacity="0.3" />
    </filter>
  </defs>
  
  <!-- Background -->
  <rect x="0" y="0" width="1000" height="600" fill="#0f172a" />
  
  <!-- Grid lines -->
  <g stroke="#1e293b" stroke-width="1">
    <line x1="0" y1="50" x2="1000" y2="50" />
    <line x1="0" y1="150" x2="1000" y2="150" />
    <line x1="0" y1="250" x2="1000" y2="250" />
    <line x1="0" y1="350" x2="1000" y2="350" />
    <line x1="0" y1="450" x2="1000" y2="450" />
    <line x1="0" y1="550" x2="1000" y2="550" />
    
    <line x1="100" y1="0" x2="100" y2="600" />
    <line x1="300" y1="0" x2="300" y2="600" />
    <line x1="500" y1="0" x2="500" y2="600" />
    <line x1="700" y1="0" x2="700" y2="600" />
    <line x1="900" y1="0" x2="900" y2="600" />
  </g>
  
  <!-- Title with modern styling -->
  <text x="500" y="50" font-family="Arial, sans-serif" font-size="36" text-anchor="middle" font-weight="bold" fill="#f8fafc" filter="url(#glow)">n8n NODES ECOSYSTEM</text>
  <text x="500" y="85" font-family="Arial, sans-serif" font-size="18" text-anchor="middle" fill="#94a3b8">Workflow Automation Building Blocks</text>
  
  <!-- Connection lines with animation suggestion -->
  <g stroke-width="2" fill="none">
    <!-- Main flow -->
    <path d="M190 230 C240 230, 260 130, 310 130" stroke="#4f46e5" stroke-dasharray="5,5" />
    <path d="M430 130 C480 130, 500 200, 550 200" stroke="#4f46e5" stroke-dasharray="5,5" />
    <path d="M670 200 C720 200, 750 130, 800 130" stroke="#4f46e5" stroke-dasharray="5,5" />
    <path d="M670 200 C720 200, 750 300, 800 300" stroke="#4f46e5" stroke-dasharray="5,5" />
    
    <!-- Alternative flows -->
    <path d="M190 230 C240 230, 260 300, 310 300" stroke="#0ea5e9" stroke-dasharray="5,5" />
    <path d="M430 300 C480 300, 500 370, 550 370" stroke="#0ea5e9" stroke-dasharray="5,5" />
    <path d="M550 370 C650 370, 700 470, 800 470" stroke="#0ea5e9" stroke-dasharray="5,5" />
    
    <!-- Data flow indicators (animated dots suggestion) -->
    <circle cx="260" cy="180" r="5" fill="#4f46e5" />
    <circle cx="500" cy="150" r="5" fill="#4f46e5" />
    <circle cx="730" cy="160" r="5" fill="#4f46e5" />
    <circle cx="730" cy="250" r="5" fill="#4f46e5" />
    <circle cx="260" cy="260" r="5" fill="#0ea5e9" />
    <circle cx="500" cy="335" r="5" fill="#0ea5e9" />
    <circle cx="680" cy="400" r="5" fill="#0ea5e9" />
  </g>
  
  <!-- Nodes -->
  <!-- Trigger Node -->
  <g filter="url(#shadow)">
    <rect x="100" y="200" width="180" height="60" rx="12" fill="#ef4444" />
    <circle cx="130" cy="230" r="15" fill="#ffffff" fill-opacity="0.2" />
    <text x="135" y="235" font-family="Arial, sans-serif" font-size="16" text-anchor="middle" fill="white">⚡</text>
    <text x="195" y="226" font-family="Arial, sans-serif" font-size="16" font-weight="bold" text-anchor="middle" fill="white">TRIGGER</text>
    <text x="195" y="246" font-family="Arial, sans-serif" font-size="12" text-anchor="middle" fill="white">Webhook / Cron / Event</text>
  </g>
  
  <!-- HTTP Request Node -->
  <g filter="url(#shadow)">
    <rect x="310" y="100" width="180" height="60" rx="12" fill="#10b981" />
    <circle cx="340" cy="130" r="15" fill="#ffffff" fill-opacity="0.2" />
    <text x="345" y="135" font-family="Arial, sans-serif" font-size="16" text-anchor="middle" fill="white">🌐</text>
    <text x="405" y="126" font-family="Arial, sans-serif" font-size="16" font-weight="bold" text-anchor="middle" fill="white">HTTP REQUEST</text>
    <text x="405" y="146" font-family="Arial, sans-serif" font-size="12" text-anchor="middle" fill="white">API Integration</text>
  </g>
  
  <!-- Database Node -->
  <g filter="url(#shadow)">
    <rect x="310" y="270" width="180" height="60" rx="12" fill="#6366f1" />
    <circle cx="340" cy="300" r="15" fill="#ffffff" fill-opacity="0.2" />
    <text x="345" y="305" font-family="Arial, sans-serif" font-size="16" text-anchor="middle" fill="white">🗄️</text>
    <text x="405" y="296" font-family="Arial, sans-serif" font-size="16" font-weight="bold" text-anchor="middle" fill="white">DATABASE</text>
    <text x="405" y="316" font-family="Arial, sans-serif" font-size="12" text-anchor="middle" fill="white">PostgreSQL / MongoDB</text>
  </g>
  
  <!-- Function Node -->
  <g filter="url(#shadow)">
    <rect x="550" y="170" width="180" height="60" rx="12" fill="#8b5cf6" />
    <circle cx="580" cy="200" r="15" fill="#ffffff" fill-opacity="0.2" />
    <text x="585" y="205" font-family="Arial, sans-serif" font-size="16" text-anchor="middle" fill="white">🔧</text>
    <text x="645" y="196" font-family="Arial, sans-serif" font-size="16" font-weight="bold" text-anchor="middle" fill="white">FUNCTION</text>
    <text x="645" y="216" font-family="Arial, sans-serif" font-size="12" text-anchor="middle" fill="white">Code / Transform Data</text>
  </g>
  
  <!-- Data Mapping Node -->
  <g filter="url(#shadow)">
    <rect x="550" y="340" width="180" height="60" rx="12" fill="#ec4899" />
    <circle cx="580" cy="370" r="15" fill="#ffffff" fill-opacity="0.2" />
    <text x="585" y="375" font-family="Arial, sans-serif" font-size="16" text-anchor="middle" fill="white">🔄</text>
    <text x="645" y="366" font-family="Arial, sans-serif" font-size="16" font-weight="bold" text-anchor="middle" fill="white">DATA MAPPING</text>
    <text x="645" y="386" font-family="Arial, sans-serif" font-size="12" text-anchor="middle" fill="white">Transform / Filter</text>
  </g>
  
  <!-- Conditional Node -->
  <g filter="url(#shadow)">
    <rect x="800" y="100" width="180" height="60" rx="12" fill="#f59e0b" />
    <circle cx="830" cy="130" r="15" fill="#ffffff" fill-opacity="0.2" />
    <text x="835" y="135" font-family="Arial, sans-serif" font-size="16" text-anchor="middle" fill="white">⚙️</text>
    <text x="895" y="126" font-family="Arial, sans-serif" font-size="16" font-weight="bold" text-anchor="middle" fill="white">CONDITIONAL</text>
    <text x="895" y="146" font-family="Arial, sans-serif" font-size="12" text-anchor="middle" fill="white">IF / SWITCH</text>
  </g>
  
  <!-- Email Node -->
  <g filter="url(#shadow)">
    <rect x="800" y="270" width="180" height="60" rx="12" fill="#0ea5e9" />
    <circle cx="830" cy="300" r="15" fill="#ffffff" fill-opacity="0.2" />
    <text x="835" y="305" font-family="Arial, sans-serif" font-size="16" text-anchor="middle" fill="white">✉️</text>
    <text x="895" y="296" font-family="Arial, sans-serif" font-size="16" font-weight="bold" text-anchor="middle" fill="white">EMAIL</text>
    <text x="895" y="316" font-family="Arial, sans-serif" font-size="12" text-anchor="middle" fill="white">Send / Receive</text>
  </g>
  
  <!-- Webhook Node -->
  <g filter="url(#shadow)">
    <rect x="800" y="440" width="180" height="60" rx="12" fill="#14b8a6" />
    <circle cx="830" cy="470" r="15" fill="#ffffff" fill-opacity="0.2" />
    <text x="835" y="475" font-family="Arial, sans-serif" font-size="16" text-anchor="middle" fill="white">📡</text>
    <text x="895" y="466" font-family="Arial, sans-serif" font-size="16" font-weight="bold" text-anchor="middle" fill="white">WEBHOOK</text>
    <text x="895" y="486" font-family="Arial, sans-serif" font-size="12" text-anchor="middle" fill="white">Response / Callback</text>
  </g>
  
  <!-- Features callout -->
  <g transform="translate(100, 470)">
    <rect x="0" y="0" width="600" height="100" rx="12" fill="#1e293b" filter="url(#shadow)" />
    <text x="20" y="30" font-family="Arial, sans-serif" font-size="18" font-weight="bold" fill="#f8fafc">n8n Node Features:</text>
    
    <circle cx="40" cy="55" r="6" fill="#10b981" />
    <text x="60" y="60" font-family="Arial, sans-serif" font-size="14" fill="#e2e8f0">Drag &amp; Drop Visual Builder</text>
    
    <circle cx="250" cy="55" r="6" fill="#10b981" />
    <text x="270" y="60" font-family="Arial, sans-serif" font-size="14" fill="#e2e8f0">400+ Integration Nodes</text>
    
    <circle cx="470" cy="55" r="6" fill="#10b981" />
    <text x="490" y="60" font-family="Arial, sans-serif" font-size="14" fill="#e2e8f0">Custom Node Support</text>
    
    <circle cx="40" cy="85" r="6" fill="#10b981" />
    <text x="60" y="90" font-family="Arial, sans-serif" font-size="14" fill="#e2e8f0">Live Data Preview</text>
    
    <circle cx="250" cy="85" r="6" fill="#10b981" />
    <text x="270" y="90" font-family="Arial, sans-serif" font-size="14" fill="#e2e8f0">Advanced Error Handling</text>
    
    <circle cx="470" cy="85" r="6" fill="#10b981" />
    <text x="490" y="90" font-family="Arial, sans-serif" font-size="14" fill="#e2e8f0">Self-Hosted Options</text>
  </g>
</svg>
